<mxfile host="app.diagrams.net" modified="2024-05-25T22:00:53.252Z" agent="Mozilla/5.0 (Windows NT 10.0; Win64; x64) AppleWebKit/537.36 (KHTML, like Gecko) Chrome/125.0.0.0 Safari/537.36" etag="nyLjd9zaKYrAYANsANc6" version="24.4.8" type="github">
  <diagram name="Страница — 1" id="7UTs4ttHY_Ht5ohVWrp2">
    <mxGraphModel dx="2623" dy="492" grid="1" gridSize="10" guides="1" tooltips="1" connect="1" arrows="1" fold="1" page="1" pageScale="1" pageWidth="827" pageHeight="1169" math="0" shadow="0">
      <root>
        <mxCell id="0" />
        <mxCell id="1" parent="0" />
        <mxCell id="VlsYezxyUfLv1HVdO4pJ-1" value="Задача 3. Составить блок-схему нахождения среднего арифметического из 4-х чисел." style="text;align=center;verticalAlign=middle;resizable=0;points=[];autosize=0;strokeColor=none;fillColor=none;fontSize=16;" vertex="1" parent="1">
          <mxGeometry x="-1610" y="40" width="620" height="30" as="geometry" />
        </mxCell>
        <mxCell id="VlsYezxyUfLv1HVdO4pJ-8" value="" style="edgeStyle=orthogonalEdgeStyle;rounded=0;orthogonalLoop=1;jettySize=auto;html=1;" edge="1" parent="1" source="VlsYezxyUfLv1HVdO4pJ-4" target="VlsYezxyUfLv1HVdO4pJ-5">
          <mxGeometry relative="1" as="geometry" />
        </mxCell>
        <mxCell id="VlsYezxyUfLv1HVdO4pJ-3" value="Start" style="ellipse;whiteSpace=wrap;html=1;" vertex="1" parent="1">
          <mxGeometry x="-1390" y="90" width="140" height="90" as="geometry" />
        </mxCell>
        <mxCell id="VlsYezxyUfLv1HVdO4pJ-12" value="" style="edgeStyle=orthogonalEdgeStyle;rounded=0;orthogonalLoop=1;jettySize=auto;html=1;" edge="1" parent="1" source="VlsYezxyUfLv1HVdO4pJ-5" target="VlsYezxyUfLv1HVdO4pJ-11">
          <mxGeometry relative="1" as="geometry" />
        </mxCell>
        <mxCell id="VlsYezxyUfLv1HVdO4pJ-5" value="&lt;span style=&quot;background-color: initial;&quot;&gt;count = 4&lt;/span&gt;&lt;div&gt;x = 0&lt;/div&gt;" style="rounded=0;whiteSpace=wrap;html=1;" vertex="1" parent="1">
          <mxGeometry x="-1380" y="310" width="120" height="60" as="geometry" />
        </mxCell>
        <mxCell id="VlsYezxyUfLv1HVdO4pJ-9" value="" style="edgeStyle=orthogonalEdgeStyle;rounded=0;orthogonalLoop=1;jettySize=auto;html=1;" edge="1" parent="1" source="VlsYezxyUfLv1HVdO4pJ-3" target="VlsYezxyUfLv1HVdO4pJ-4">
          <mxGeometry relative="1" as="geometry">
            <mxPoint x="-1320" y="180" as="sourcePoint" />
            <mxPoint x="-1320" y="290" as="targetPoint" />
          </mxGeometry>
        </mxCell>
        <mxCell id="VlsYezxyUfLv1HVdO4pJ-4" value="a, b, c, d" style="shape=parallelogram;perimeter=parallelogramPerimeter;whiteSpace=wrap;html=1;fixedSize=1;" vertex="1" parent="1">
          <mxGeometry x="-1380" y="220" width="120" height="60" as="geometry" />
        </mxCell>
        <mxCell id="VlsYezxyUfLv1HVdO4pJ-15" value="" style="edgeStyle=orthogonalEdgeStyle;rounded=0;orthogonalLoop=1;jettySize=auto;html=1;" edge="1" parent="1" source="VlsYezxyUfLv1HVdO4pJ-11" target="VlsYezxyUfLv1HVdO4pJ-13">
          <mxGeometry relative="1" as="geometry" />
        </mxCell>
        <mxCell id="VlsYezxyUfLv1HVdO4pJ-11" value="x = (a+b+c+d) / count" style="rounded=0;whiteSpace=wrap;html=1;" vertex="1" parent="1">
          <mxGeometry x="-1380" y="400" width="120" height="60" as="geometry" />
        </mxCell>
        <mxCell id="VlsYezxyUfLv1HVdO4pJ-16" value="" style="edgeStyle=orthogonalEdgeStyle;rounded=0;orthogonalLoop=1;jettySize=auto;html=1;" edge="1" parent="1" source="VlsYezxyUfLv1HVdO4pJ-13" target="VlsYezxyUfLv1HVdO4pJ-14">
          <mxGeometry relative="1" as="geometry" />
        </mxCell>
        <mxCell id="VlsYezxyUfLv1HVdO4pJ-13" value="x" style="shape=document;whiteSpace=wrap;html=1;boundedLbl=1;" vertex="1" parent="1">
          <mxGeometry x="-1380" y="490" width="120" height="80" as="geometry" />
        </mxCell>
        <mxCell id="VlsYezxyUfLv1HVdO4pJ-14" value="Finish" style="ellipse;whiteSpace=wrap;html=1;" vertex="1" parent="1">
          <mxGeometry x="-1380" y="590" width="120" height="80" as="geometry" />
        </mxCell>
        <mxCell id="VlsYezxyUfLv1HVdO4pJ-18" value="Задача 6. Составьте блок-схему нахождения факториала N." style="text;align=center;verticalAlign=middle;resizable=0;points=[];autosize=1;strokeColor=none;fillColor=none;fontSize=18;" vertex="1" parent="1">
          <mxGeometry x="-720" y="35" width="480" height="40" as="geometry" />
        </mxCell>
        <mxCell id="VlsYezxyUfLv1HVdO4pJ-24" value="" style="edgeStyle=orthogonalEdgeStyle;rounded=0;orthogonalLoop=1;jettySize=auto;html=1;" edge="1" parent="1" source="VlsYezxyUfLv1HVdO4pJ-19" target="VlsYezxyUfLv1HVdO4pJ-21">
          <mxGeometry relative="1" as="geometry" />
        </mxCell>
        <mxCell id="VlsYezxyUfLv1HVdO4pJ-19" value="Start" style="ellipse;whiteSpace=wrap;html=1;" vertex="1" parent="1">
          <mxGeometry x="-500" y="90" width="140" height="90" as="geometry" />
        </mxCell>
        <mxCell id="VlsYezxyUfLv1HVdO4pJ-25" value="" style="edgeStyle=orthogonalEdgeStyle;rounded=0;orthogonalLoop=1;jettySize=auto;html=1;" edge="1" parent="1" source="VlsYezxyUfLv1HVdO4pJ-22" target="VlsYezxyUfLv1HVdO4pJ-23">
          <mxGeometry relative="1" as="geometry" />
        </mxCell>
        <mxCell id="VlsYezxyUfLv1HVdO4pJ-21" value="N" style="shape=parallelogram;perimeter=parallelogramPerimeter;whiteSpace=wrap;html=1;fixedSize=1;" vertex="1" parent="1">
          <mxGeometry x="-490" y="210" width="120" height="60" as="geometry" />
        </mxCell>
        <mxCell id="VlsYezxyUfLv1HVdO4pJ-28" value="" style="edgeStyle=orthogonalEdgeStyle;rounded=0;orthogonalLoop=1;jettySize=auto;html=1;" edge="1" parent="1" source="VlsYezxyUfLv1HVdO4pJ-23" target="VlsYezxyUfLv1HVdO4pJ-27">
          <mxGeometry relative="1" as="geometry" />
        </mxCell>
        <mxCell id="VlsYezxyUfLv1HVdO4pJ-32" value="" style="edgeStyle=orthogonalEdgeStyle;rounded=0;orthogonalLoop=1;jettySize=auto;html=1;" edge="1" parent="1" source="VlsYezxyUfLv1HVdO4pJ-23" target="VlsYezxyUfLv1HVdO4pJ-31">
          <mxGeometry relative="1" as="geometry" />
        </mxCell>
        <mxCell id="VlsYezxyUfLv1HVdO4pJ-23" value="count == N + 1" style="rhombus;whiteSpace=wrap;html=1;" vertex="1" parent="1">
          <mxGeometry x="-525" y="380" width="190" height="190" as="geometry" />
        </mxCell>
        <mxCell id="VlsYezxyUfLv1HVdO4pJ-26" value="" style="edgeStyle=orthogonalEdgeStyle;rounded=0;orthogonalLoop=1;jettySize=auto;html=1;" edge="1" parent="1" source="VlsYezxyUfLv1HVdO4pJ-21">
          <mxGeometry relative="1" as="geometry">
            <mxPoint x="-430" y="270" as="sourcePoint" />
            <mxPoint x="-430" y="300" as="targetPoint" />
          </mxGeometry>
        </mxCell>
        <mxCell id="VlsYezxyUfLv1HVdO4pJ-22" value="sum = 1&lt;div&gt;count = 1&lt;/div&gt;" style="rounded=0;whiteSpace=wrap;html=1;" vertex="1" parent="1">
          <mxGeometry x="-490" y="300" width="120" height="60" as="geometry" />
        </mxCell>
        <mxCell id="VlsYezxyUfLv1HVdO4pJ-30" value="" style="edgeStyle=orthogonalEdgeStyle;rounded=0;orthogonalLoop=1;jettySize=auto;html=1;entryX=0;entryY=0.625;entryDx=0;entryDy=0;entryPerimeter=0;" edge="1" parent="1" source="VlsYezxyUfLv1HVdO4pJ-27" target="VlsYezxyUfLv1HVdO4pJ-29">
          <mxGeometry relative="1" as="geometry">
            <Array as="points">
              <mxPoint x="-150" y="475" />
            </Array>
          </mxGeometry>
        </mxCell>
        <mxCell id="VlsYezxyUfLv1HVdO4pJ-27" value="sum" style="shape=document;whiteSpace=wrap;html=1;boundedLbl=1;" vertex="1" parent="1">
          <mxGeometry x="-300" y="435" width="120" height="80" as="geometry" />
        </mxCell>
        <mxCell id="VlsYezxyUfLv1HVdO4pJ-29" value="Finish" style="ellipse;whiteSpace=wrap;html=1;" vertex="1" parent="1">
          <mxGeometry x="-140" y="425" width="120" height="80" as="geometry" />
        </mxCell>
        <mxCell id="VlsYezxyUfLv1HVdO4pJ-36" value="" style="edgeStyle=orthogonalEdgeStyle;rounded=0;orthogonalLoop=1;jettySize=auto;html=1;" edge="1" parent="1" source="VlsYezxyUfLv1HVdO4pJ-31">
          <mxGeometry relative="1" as="geometry">
            <mxPoint x="-430" y="720" as="targetPoint" />
          </mxGeometry>
        </mxCell>
        <mxCell id="VlsYezxyUfLv1HVdO4pJ-31" value="sum = sum * count" style="rounded=0;whiteSpace=wrap;html=1;" vertex="1" parent="1">
          <mxGeometry x="-490" y="610" width="120" height="60" as="geometry" />
        </mxCell>
        <mxCell id="VlsYezxyUfLv1HVdO4pJ-33" value="No" style="text;html=1;align=center;verticalAlign=middle;resizable=0;points=[];autosize=1;strokeColor=none;fillColor=none;" vertex="1" parent="1">
          <mxGeometry x="-470" y="570" width="40" height="30" as="geometry" />
        </mxCell>
        <mxCell id="VlsYezxyUfLv1HVdO4pJ-34" value="Yes" style="text;html=1;align=center;verticalAlign=middle;resizable=0;points=[];autosize=1;strokeColor=none;fillColor=none;" vertex="1" parent="1">
          <mxGeometry x="-349" y="443" width="40" height="30" as="geometry" />
        </mxCell>
        <mxCell id="VlsYezxyUfLv1HVdO4pJ-38" style="edgeStyle=orthogonalEdgeStyle;rounded=0;orthogonalLoop=1;jettySize=auto;html=1;entryX=0;entryY=0.5;entryDx=0;entryDy=0;" edge="1" parent="1" source="VlsYezxyUfLv1HVdO4pJ-35" target="VlsYezxyUfLv1HVdO4pJ-23">
          <mxGeometry relative="1" as="geometry">
            <Array as="points">
              <mxPoint x="-545" y="750" />
              <mxPoint x="-545" y="475" />
            </Array>
          </mxGeometry>
        </mxCell>
        <mxCell id="VlsYezxyUfLv1HVdO4pJ-35" value="count ++" style="whiteSpace=wrap;html=1;rounded=0;" vertex="1" parent="1">
          <mxGeometry x="-490" y="720" width="120" height="60" as="geometry" />
        </mxCell>
        <mxCell id="VlsYezxyUfLv1HVdO4pJ-39" value="* При условии, что N - положительное целое число" style="text;html=1;align=center;verticalAlign=middle;resizable=0;points=[];autosize=1;strokeColor=none;fillColor=none;" vertex="1" parent="1">
          <mxGeometry x="-340" y="210" width="290" height="30" as="geometry" />
        </mxCell>
      </root>
    </mxGraphModel>
  </diagram>
</mxfile>
